<svg class="lds-spinner" width="200px"  height="200px"  xmlns="http://www.w3.org/2000/svg" xmlns:xlink="http://www.w3.org/1999/xlink" viewBox="0 0 100 100" preserveAspectRatio="xMidYMid" style="background: none;"><g transform="rotate(0 50 50)">
  <rect x="48.5" y="4" rx="0.485" ry="0.04" width="3" height="2" fill="black">
    <animate attributeName="opacity" values="1;0" keyTimes="0;1" dur="0.9s" begin="-0.8910000000000001s" repeatCount="indefinite"></animate>
  </rect>
</g><g transform="rotate(3.6 50 50)">
  <rect x="48.5" y="4" rx="0.485" ry="0.04" width="3" height="2" fill="black">
    <animate attributeName="opacity" values="1;0" keyTimes="0;1" dur="0.9s" begin="-0.882s" repeatCount="indefinite"></animate>
  </rect>
</g><g transform="rotate(7.2 50 50)">
  <rect x="48.5" y="4" rx="0.485" ry="0.04" width="3" height="2" fill="black">
    <animate attributeName="opacity" values="1;0" keyTimes="0;1" dur="0.9s" begin="-0.873s" repeatCount="indefinite"></animate>
  </rect>
</g><g transform="rotate(10.8 50 50)">
  <rect x="48.5" y="4" rx="0.485" ry="0.04" width="3" height="2" fill="black">
    <animate attributeName="opacity" values="1;0" keyTimes="0;1" dur="0.9s" begin="-0.8640000000000001s" repeatCount="indefinite"></animate>
  </rect>
</g><g transform="rotate(14.4 50 50)">
  <rect x="48.5" y="4" rx="0.485" ry="0.04" width="3" height="2" fill="black">
    <animate attributeName="opacity" values="1;0" keyTimes="0;1" dur="0.9s" begin="-0.855s" repeatCount="indefinite"></animate>
  </rect>
</g><g transform="rotate(18 50 50)">
  <rect x="48.5" y="4" rx="0.485" ry="0.04" width="3" height="2" fill="black">
    <animate attributeName="opacity" values="1;0" keyTimes="0;1" dur="0.9s" begin="-0.8460000000000001s" repeatCount="indefinite"></animate>
  </rect>
</g><g transform="rotate(21.6 50 50)">
  <rect x="48.5" y="4" rx="0.485" ry="0.04" width="3" height="2" fill="black">
    <animate attributeName="opacity" values="1;0" keyTimes="0;1" dur="0.9s" begin="-0.8370000000000001s" repeatCount="indefinite"></animate>
  </rect>
</g><g transform="rotate(25.2 50 50)">
  <rect x="48.5" y="4" rx="0.485" ry="0.04" width="3" height="2" fill="black">
    <animate attributeName="opacity" values="1;0" keyTimes="0;1" dur="0.9s" begin="-0.828s" repeatCount="indefinite"></animate>
  </rect>
</g><g transform="rotate(28.8 50 50)">
  <rect x="48.5" y="4" rx="0.485" ry="0.04" width="3" height="2" fill="black">
    <animate attributeName="opacity" values="1;0" keyTimes="0;1" dur="0.9s" begin="-0.8190000000000001s" repeatCount="indefinite"></animate>
  </rect>
</g><g transform="rotate(32.4 50 50)">
  <rect x="48.5" y="4" rx="0.485" ry="0.04" width="3" height="2" fill="black">
    <animate attributeName="opacity" values="1;0" keyTimes="0;1" dur="0.9s" begin="-0.81s" repeatCount="indefinite"></animate>
  </rect>
</g><g transform="rotate(36 50 50)">
  <rect x="48.5" y="4" rx="0.485" ry="0.04" width="3" height="2" fill="black">
    <animate attributeName="opacity" values="1;0" keyTimes="0;1" dur="0.9s" begin="-0.801s" repeatCount="indefinite"></animate>
  </rect>
</g><g transform="rotate(39.6 50 50)">
  <rect x="48.5" y="4" rx="0.485" ry="0.04" width="3" height="2" fill="black">
    <animate attributeName="opacity" values="1;0" keyTimes="0;1" dur="0.9s" begin="-0.792s" repeatCount="indefinite"></animate>
  </rect>
</g><g transform="rotate(43.2 50 50)">
  <rect x="48.5" y="4" rx="0.485" ry="0.04" width="3" height="2" fill="black">
    <animate attributeName="opacity" values="1;0" keyTimes="0;1" dur="0.9s" begin="-0.7829999999999999s" repeatCount="indefinite"></animate>
  </rect>
</g><g transform="rotate(46.8 50 50)">
  <rect x="48.5" y="4" rx="0.485" ry="0.04" width="3" height="2" fill="black">
    <animate attributeName="opacity" values="1;0" keyTimes="0;1" dur="0.9s" begin="-0.774s" repeatCount="indefinite"></animate>
  </rect>
</g><g transform="rotate(50.4 50 50)">
  <rect x="48.5" y="4" rx="0.485" ry="0.04" width="3" height="2" fill="black">
    <animate attributeName="opacity" values="1;0" keyTimes="0;1" dur="0.9s" begin="-0.765s" repeatCount="indefinite"></animate>
  </rect>
</g><g transform="rotate(54 50 50)">
  <rect x="48.5" y="4" rx="0.485" ry="0.04" width="3" height="2" fill="black">
    <animate attributeName="opacity" values="1;0" keyTimes="0;1" dur="0.9s" begin="-0.7560000000000001s" repeatCount="indefinite"></animate>
  </rect>
</g><g transform="rotate(57.6 50 50)">
  <rect x="48.5" y="4" rx="0.485" ry="0.04" width="3" height="2" fill="black">
    <animate attributeName="opacity" values="1;0" keyTimes="0;1" dur="0.9s" begin="-0.747s" repeatCount="indefinite"></animate>
  </rect>
</g><g transform="rotate(61.2 50 50)">
  <rect x="48.5" y="4" rx="0.485" ry="0.04" width="3" height="2" fill="black">
    <animate attributeName="opacity" values="1;0" keyTimes="0;1" dur="0.9s" begin="-0.738s" repeatCount="indefinite"></animate>
  </rect>
</g><g transform="rotate(64.8 50 50)">
  <rect x="48.5" y="4" rx="0.485" ry="0.04" width="3" height="2" fill="black">
    <animate attributeName="opacity" values="1;0" keyTimes="0;1" dur="0.9s" begin="-0.7290000000000001s" repeatCount="indefinite"></animate>
  </rect>
</g><g transform="rotate(68.4 50 50)">
  <rect x="48.5" y="4" rx="0.485" ry="0.04" width="3" height="2" fill="black">
    <animate attributeName="opacity" values="1;0" keyTimes="0;1" dur="0.9s" begin="-0.72s" repeatCount="indefinite"></animate>
  </rect>
</g><g transform="rotate(72 50 50)">
  <rect x="48.5" y="4" rx="0.485" ry="0.04" width="3" height="2" fill="black">
    <animate attributeName="opacity" values="1;0" keyTimes="0;1" dur="0.9s" begin="-0.7110000000000001s" repeatCount="indefinite"></animate>
  </rect>
</g><g transform="rotate(75.6 50 50)">
  <rect x="48.5" y="4" rx="0.485" ry="0.04" width="3" height="2" fill="black">
    <animate attributeName="opacity" values="1;0" keyTimes="0;1" dur="0.9s" begin="-0.7020000000000001s" repeatCount="indefinite"></animate>
  </rect>
</g><g transform="rotate(79.2 50 50)">
  <rect x="48.5" y="4" rx="0.485" ry="0.04" width="3" height="2" fill="black">
    <animate attributeName="opacity" values="1;0" keyTimes="0;1" dur="0.9s" begin="-0.693s" repeatCount="indefinite"></animate>
  </rect>
</g><g transform="rotate(82.8 50 50)">
  <rect x="48.5" y="4" rx="0.485" ry="0.04" width="3" height="2" fill="black">
    <animate attributeName="opacity" values="1;0" keyTimes="0;1" dur="0.9s" begin="-0.684s" repeatCount="indefinite"></animate>
  </rect>
</g><g transform="rotate(86.4 50 50)">
  <rect x="48.5" y="4" rx="0.485" ry="0.04" width="3" height="2" fill="black">
    <animate attributeName="opacity" values="1;0" keyTimes="0;1" dur="0.9s" begin="-0.675s" repeatCount="indefinite"></animate>
  </rect>
</g><g transform="rotate(90 50 50)">
  <rect x="48.5" y="4" rx="0.485" ry="0.04" width="3" height="2" fill="black">
    <animate attributeName="opacity" values="1;0" keyTimes="0;1" dur="0.9s" begin="-0.666s" repeatCount="indefinite"></animate>
  </rect>
</g><g transform="rotate(93.6 50 50)">
  <rect x="48.5" y="4" rx="0.485" ry="0.04" width="3" height="2" fill="black">
    <animate attributeName="opacity" values="1;0" keyTimes="0;1" dur="0.9s" begin="-0.657s" repeatCount="indefinite"></animate>
  </rect>
</g><g transform="rotate(97.2 50 50)">
  <rect x="48.5" y="4" rx="0.485" ry="0.04" width="3" height="2" fill="black">
    <animate attributeName="opacity" values="1;0" keyTimes="0;1" dur="0.9s" begin="-0.648s" repeatCount="indefinite"></animate>
  </rect>
</g><g transform="rotate(100.8 50 50)">
  <rect x="48.5" y="4" rx="0.485" ry="0.04" width="3" height="2" fill="black">
    <animate attributeName="opacity" values="1;0" keyTimes="0;1" dur="0.9s" begin="-0.639s" repeatCount="indefinite"></animate>
  </rect>
</g><g transform="rotate(104.4 50 50)">
  <rect x="48.5" y="4" rx="0.485" ry="0.04" width="3" height="2" fill="black">
    <animate attributeName="opacity" values="1;0" keyTimes="0;1" dur="0.9s" begin="-0.63s" repeatCount="indefinite"></animate>
  </rect>
</g><g transform="rotate(108 50 50)">
  <rect x="48.5" y="4" rx="0.485" ry="0.04" width="3" height="2" fill="black">
    <animate attributeName="opacity" values="1;0" keyTimes="0;1" dur="0.9s" begin="-0.621s" repeatCount="indefinite"></animate>
  </rect>
</g><g transform="rotate(111.6 50 50)">
  <rect x="48.5" y="4" rx="0.485" ry="0.04" width="3" height="2" fill="black">
    <animate attributeName="opacity" values="1;0" keyTimes="0;1" dur="0.9s" begin="-0.612s" repeatCount="indefinite"></animate>
  </rect>
</g><g transform="rotate(115.2 50 50)">
  <rect x="48.5" y="4" rx="0.485" ry="0.04" width="3" height="2" fill="black">
    <animate attributeName="opacity" values="1;0" keyTimes="0;1" dur="0.9s" begin="-0.6030000000000001s" repeatCount="indefinite"></animate>
  </rect>
</g><g transform="rotate(118.8 50 50)">
  <rect x="48.5" y="4" rx="0.485" ry="0.04" width="3" height="2" fill="black">
    <animate attributeName="opacity" values="1;0" keyTimes="0;1" dur="0.9s" begin="-0.594s" repeatCount="indefinite"></animate>
  </rect>
</g><g transform="rotate(122.4 50 50)">
  <rect x="48.5" y="4" rx="0.485" ry="0.04" width="3" height="2" fill="black">
    <animate attributeName="opacity" values="1;0" keyTimes="0;1" dur="0.9s" begin="-0.585s" repeatCount="indefinite"></animate>
  </rect>
</g><g transform="rotate(126 50 50)">
  <rect x="48.5" y="4" rx="0.485" ry="0.04" width="3" height="2" fill="black">
    <animate attributeName="opacity" values="1;0" keyTimes="0;1" dur="0.9s" begin="-0.5760000000000001s" repeatCount="indefinite"></animate>
  </rect>
</g><g transform="rotate(129.6 50 50)">
  <rect x="48.5" y="4" rx="0.485" ry="0.04" width="3" height="2" fill="black">
    <animate attributeName="opacity" values="1;0" keyTimes="0;1" dur="0.9s" begin="-0.5670000000000001s" repeatCount="indefinite"></animate>
  </rect>
</g><g transform="rotate(133.2 50 50)">
  <rect x="48.5" y="4" rx="0.485" ry="0.04" width="3" height="2" fill="black">
    <animate attributeName="opacity" values="1;0" keyTimes="0;1" dur="0.9s" begin="-0.558s" repeatCount="indefinite"></animate>
  </rect>
</g><g transform="rotate(136.8 50 50)">
  <rect x="48.5" y="4" rx="0.485" ry="0.04" width="3" height="2" fill="black">
    <animate attributeName="opacity" values="1;0" keyTimes="0;1" dur="0.9s" begin="-0.5489999999999999s" repeatCount="indefinite"></animate>
  </rect>
</g><g transform="rotate(140.4 50 50)">
  <rect x="48.5" y="4" rx="0.485" ry="0.04" width="3" height="2" fill="black">
    <animate attributeName="opacity" values="1;0" keyTimes="0;1" dur="0.9s" begin="-0.54s" repeatCount="indefinite"></animate>
  </rect>
</g><g transform="rotate(144 50 50)">
  <rect x="48.5" y="4" rx="0.485" ry="0.04" width="3" height="2" fill="black">
    <animate attributeName="opacity" values="1;0" keyTimes="0;1" dur="0.9s" begin="-0.531s" repeatCount="indefinite"></animate>
  </rect>
</g><g transform="rotate(147.6 50 50)">
  <rect x="48.5" y="4" rx="0.485" ry="0.04" width="3" height="2" fill="black">
    <animate attributeName="opacity" values="1;0" keyTimes="0;1" dur="0.9s" begin="-0.522s" repeatCount="indefinite"></animate>
  </rect>
</g><g transform="rotate(151.2 50 50)">
  <rect x="48.5" y="4" rx="0.485" ry="0.04" width="3" height="2" fill="black">
    <animate attributeName="opacity" values="1;0" keyTimes="0;1" dur="0.9s" begin="-0.513s" repeatCount="indefinite"></animate>
  </rect>
</g><g transform="rotate(154.8 50 50)">
  <rect x="48.5" y="4" rx="0.485" ry="0.04" width="3" height="2" fill="black">
    <animate attributeName="opacity" values="1;0" keyTimes="0;1" dur="0.9s" begin="-0.504s" repeatCount="indefinite"></animate>
  </rect>
</g><g transform="rotate(158.4 50 50)">
  <rect x="48.5" y="4" rx="0.485" ry="0.04" width="3" height="2" fill="black">
    <animate attributeName="opacity" values="1;0" keyTimes="0;1" dur="0.9s" begin="-0.495s" repeatCount="indefinite"></animate>
  </rect>
</g><g transform="rotate(162 50 50)">
  <rect x="48.5" y="4" rx="0.485" ry="0.04" width="3" height="2" fill="black">
    <animate attributeName="opacity" values="1;0" keyTimes="0;1" dur="0.9s" begin="-0.486s" repeatCount="indefinite"></animate>
  </rect>
</g><g transform="rotate(165.6 50 50)">
  <rect x="48.5" y="4" rx="0.485" ry="0.04" width="3" height="2" fill="black">
    <animate attributeName="opacity" values="1;0" keyTimes="0;1" dur="0.9s" begin="-0.47700000000000004s" repeatCount="indefinite"></animate>
  </rect>
</g><g transform="rotate(169.2 50 50)">
  <rect x="48.5" y="4" rx="0.485" ry="0.04" width="3" height="2" fill="black">
    <animate attributeName="opacity" values="1;0" keyTimes="0;1" dur="0.9s" begin="-0.468s" repeatCount="indefinite"></animate>
  </rect>
</g><g transform="rotate(172.8 50 50)">
  <rect x="48.5" y="4" rx="0.485" ry="0.04" width="3" height="2" fill="black">
    <animate attributeName="opacity" values="1;0" keyTimes="0;1" dur="0.9s" begin="-0.45899999999999996s" repeatCount="indefinite"></animate>
  </rect>
</g><g transform="rotate(176.4 50 50)">
  <rect x="48.5" y="4" rx="0.485" ry="0.04" width="3" height="2" fill="black">
    <animate attributeName="opacity" values="1;0" keyTimes="0;1" dur="0.9s" begin="-0.45s" repeatCount="indefinite"></animate>
  </rect>
</g><g transform="rotate(180 50 50)">
  <rect x="48.5" y="4" rx="0.485" ry="0.04" width="3" height="2" fill="black">
    <animate attributeName="opacity" values="1;0" keyTimes="0;1" dur="0.9s" begin="-0.441s" repeatCount="indefinite"></animate>
  </rect>
</g><g transform="rotate(183.6 50 50)">
  <rect x="48.5" y="4" rx="0.485" ry="0.04" width="3" height="2" fill="black">
    <animate attributeName="opacity" values="1;0" keyTimes="0;1" dur="0.9s" begin="-0.43200000000000005s" repeatCount="indefinite"></animate>
  </rect>
</g><g transform="rotate(187.2 50 50)">
  <rect x="48.5" y="4" rx="0.485" ry="0.04" width="3" height="2" fill="black">
    <animate attributeName="opacity" values="1;0" keyTimes="0;1" dur="0.9s" begin="-0.42300000000000004s" repeatCount="indefinite"></animate>
  </rect>
</g><g transform="rotate(190.8 50 50)">
  <rect x="48.5" y="4" rx="0.485" ry="0.04" width="3" height="2" fill="black">
    <animate attributeName="opacity" values="1;0" keyTimes="0;1" dur="0.9s" begin="-0.414s" repeatCount="indefinite"></animate>
  </rect>
</g><g transform="rotate(194.4 50 50)">
  <rect x="48.5" y="4" rx="0.485" ry="0.04" width="3" height="2" fill="black">
    <animate attributeName="opacity" values="1;0" keyTimes="0;1" dur="0.9s" begin="-0.405s" repeatCount="indefinite"></animate>
  </rect>
</g><g transform="rotate(198 50 50)">
  <rect x="48.5" y="4" rx="0.485" ry="0.04" width="3" height="2" fill="black">
    <animate attributeName="opacity" values="1;0" keyTimes="0;1" dur="0.9s" begin="-0.396s" repeatCount="indefinite"></animate>
  </rect>
</g><g transform="rotate(201.6 50 50)">
  <rect x="48.5" y="4" rx="0.485" ry="0.04" width="3" height="2" fill="black">
    <animate attributeName="opacity" values="1;0" keyTimes="0;1" dur="0.9s" begin="-0.387s" repeatCount="indefinite"></animate>
  </rect>
</g><g transform="rotate(205.2 50 50)">
  <rect x="48.5" y="4" rx="0.485" ry="0.04" width="3" height="2" fill="black">
    <animate attributeName="opacity" values="1;0" keyTimes="0;1" dur="0.9s" begin="-0.37800000000000006s" repeatCount="indefinite"></animate>
  </rect>
</g><g transform="rotate(208.8 50 50)">
  <rect x="48.5" y="4" rx="0.485" ry="0.04" width="3" height="2" fill="black">
    <animate attributeName="opacity" values="1;0" keyTimes="0;1" dur="0.9s" begin="-0.369s" repeatCount="indefinite"></animate>
  </rect>
</g><g transform="rotate(212.4 50 50)">
  <rect x="48.5" y="4" rx="0.485" ry="0.04" width="3" height="2" fill="black">
    <animate attributeName="opacity" values="1;0" keyTimes="0;1" dur="0.9s" begin="-0.36s" repeatCount="indefinite"></animate>
  </rect>
</g><g transform="rotate(216 50 50)">
  <rect x="48.5" y="4" rx="0.485" ry="0.04" width="3" height="2" fill="black">
    <animate attributeName="opacity" values="1;0" keyTimes="0;1" dur="0.9s" begin="-0.35100000000000003s" repeatCount="indefinite"></animate>
  </rect>
</g><g transform="rotate(219.6 50 50)">
  <rect x="48.5" y="4" rx="0.485" ry="0.04" width="3" height="2" fill="black">
    <animate attributeName="opacity" values="1;0" keyTimes="0;1" dur="0.9s" begin="-0.342s" repeatCount="indefinite"></animate>
  </rect>
</g><g transform="rotate(223.2 50 50)">
  <rect x="48.5" y="4" rx="0.485" ry="0.04" width="3" height="2" fill="black">
    <animate attributeName="opacity" values="1;0" keyTimes="0;1" dur="0.9s" begin="-0.333s" repeatCount="indefinite"></animate>
  </rect>
</g><g transform="rotate(226.8 50 50)">
  <rect x="48.5" y="4" rx="0.485" ry="0.04" width="3" height="2" fill="black">
    <animate attributeName="opacity" values="1;0" keyTimes="0;1" dur="0.9s" begin="-0.324s" repeatCount="indefinite"></animate>
  </rect>
</g><g transform="rotate(230.4 50 50)">
  <rect x="48.5" y="4" rx="0.485" ry="0.04" width="3" height="2" fill="black">
    <animate attributeName="opacity" values="1;0" keyTimes="0;1" dur="0.9s" begin="-0.315s" repeatCount="indefinite"></animate>
  </rect>
</g><g transform="rotate(234 50 50)">
  <rect x="48.5" y="4" rx="0.485" ry="0.04" width="3" height="2" fill="black">
    <animate attributeName="opacity" values="1;0" keyTimes="0;1" dur="0.9s" begin="-0.306s" repeatCount="indefinite"></animate>
  </rect>
</g><g transform="rotate(237.6 50 50)">
  <rect x="48.5" y="4" rx="0.485" ry="0.04" width="3" height="2" fill="black">
    <animate attributeName="opacity" values="1;0" keyTimes="0;1" dur="0.9s" begin="-0.297s" repeatCount="indefinite"></animate>
  </rect>
</g><g transform="rotate(241.2 50 50)">
  <rect x="48.5" y="4" rx="0.485" ry="0.04" width="3" height="2" fill="black">
    <animate attributeName="opacity" values="1;0" keyTimes="0;1" dur="0.9s" begin="-0.28800000000000003s" repeatCount="indefinite"></animate>
  </rect>
</g><g transform="rotate(244.8 50 50)">
  <rect x="48.5" y="4" rx="0.485" ry="0.04" width="3" height="2" fill="black">
    <animate attributeName="opacity" values="1;0" keyTimes="0;1" dur="0.9s" begin="-0.279s" repeatCount="indefinite"></animate>
  </rect>
</g><g transform="rotate(248.4 50 50)">
  <rect x="48.5" y="4" rx="0.485" ry="0.04" width="3" height="2" fill="black">
    <animate attributeName="opacity" values="1;0" keyTimes="0;1" dur="0.9s" begin="-0.27s" repeatCount="indefinite"></animate>
  </rect>
</g><g transform="rotate(252 50 50)">
  <rect x="48.5" y="4" rx="0.485" ry="0.04" width="3" height="2" fill="black">
    <animate attributeName="opacity" values="1;0" keyTimes="0;1" dur="0.9s" begin="-0.261s" repeatCount="indefinite"></animate>
  </rect>
</g><g transform="rotate(255.6 50 50)">
  <rect x="48.5" y="4" rx="0.485" ry="0.04" width="3" height="2" fill="black">
    <animate attributeName="opacity" values="1;0" keyTimes="0;1" dur="0.9s" begin="-0.252s" repeatCount="indefinite"></animate>
  </rect>
</g><g transform="rotate(259.2 50 50)">
  <rect x="48.5" y="4" rx="0.485" ry="0.04" width="3" height="2" fill="black">
    <animate attributeName="opacity" values="1;0" keyTimes="0;1" dur="0.9s" begin="-0.243s" repeatCount="indefinite"></animate>
  </rect>
</g><g transform="rotate(262.8 50 50)">
  <rect x="48.5" y="4" rx="0.485" ry="0.04" width="3" height="2" fill="black">
    <animate attributeName="opacity" values="1;0" keyTimes="0;1" dur="0.9s" begin="-0.234s" repeatCount="indefinite"></animate>
  </rect>
</g><g transform="rotate(266.4 50 50)">
  <rect x="48.5" y="4" rx="0.485" ry="0.04" width="3" height="2" fill="black">
    <animate attributeName="opacity" values="1;0" keyTimes="0;1" dur="0.9s" begin="-0.225s" repeatCount="indefinite"></animate>
  </rect>
</g><g transform="rotate(270 50 50)">
  <rect x="48.5" y="4" rx="0.485" ry="0.04" width="3" height="2" fill="black">
    <animate attributeName="opacity" values="1;0" keyTimes="0;1" dur="0.9s" begin="-0.21600000000000003s" repeatCount="indefinite"></animate>
  </rect>
</g><g transform="rotate(273.6 50 50)">
  <rect x="48.5" y="4" rx="0.485" ry="0.04" width="3" height="2" fill="black">
    <animate attributeName="opacity" values="1;0" keyTimes="0;1" dur="0.9s" begin="-0.207s" repeatCount="indefinite"></animate>
  </rect>
</g><g transform="rotate(277.2 50 50)">
  <rect x="48.5" y="4" rx="0.485" ry="0.04" width="3" height="2" fill="black">
    <animate attributeName="opacity" values="1;0" keyTimes="0;1" dur="0.9s" begin="-0.198s" repeatCount="indefinite"></animate>
  </rect>
</g><g transform="rotate(280.8 50 50)">
  <rect x="48.5" y="4" rx="0.485" ry="0.04" width="3" height="2" fill="black">
    <animate attributeName="opacity" values="1;0" keyTimes="0;1" dur="0.9s" begin="-0.18900000000000003s" repeatCount="indefinite"></animate>
  </rect>
</g><g transform="rotate(284.4 50 50)">
  <rect x="48.5" y="4" rx="0.485" ry="0.04" width="3" height="2" fill="black">
    <animate attributeName="opacity" values="1;0" keyTimes="0;1" dur="0.9s" begin="-0.18s" repeatCount="indefinite"></animate>
  </rect>
</g><g transform="rotate(288 50 50)">
  <rect x="48.5" y="4" rx="0.485" ry="0.04" width="3" height="2" fill="black">
    <animate attributeName="opacity" values="1;0" keyTimes="0;1" dur="0.9s" begin="-0.171s" repeatCount="indefinite"></animate>
  </rect>
</g><g transform="rotate(291.6 50 50)">
  <rect x="48.5" y="4" rx="0.485" ry="0.04" width="3" height="2" fill="black">
    <animate attributeName="opacity" values="1;0" keyTimes="0;1" dur="0.9s" begin="-0.162s" repeatCount="indefinite"></animate>
  </rect>
</g><g transform="rotate(295.2 50 50)">
  <rect x="48.5" y="4" rx="0.485" ry="0.04" width="3" height="2" fill="black">
    <animate attributeName="opacity" values="1;0" keyTimes="0;1" dur="0.9s" begin="-0.153s" repeatCount="indefinite"></animate>
  </rect>
</g><g transform="rotate(298.8 50 50)">
  <rect x="48.5" y="4" rx="0.485" ry="0.04" width="3" height="2" fill="black">
    <animate attributeName="opacity" values="1;0" keyTimes="0;1" dur="0.9s" begin="-0.14400000000000002s" repeatCount="indefinite"></animate>
  </rect>
</g><g transform="rotate(302.4 50 50)">
  <rect x="48.5" y="4" rx="0.485" ry="0.04" width="3" height="2" fill="black">
    <animate attributeName="opacity" values="1;0" keyTimes="0;1" dur="0.9s" begin="-0.135s" repeatCount="indefinite"></animate>
  </rect>
</g><g transform="rotate(306 50 50)">
  <rect x="48.5" y="4" rx="0.485" ry="0.04" width="3" height="2" fill="black">
    <animate attributeName="opacity" values="1;0" keyTimes="0;1" dur="0.9s" begin="-0.126s" repeatCount="indefinite"></animate>
  </rect>
</g><g transform="rotate(309.6 50 50)">
  <rect x="48.5" y="4" rx="0.485" ry="0.04" width="3" height="2" fill="black">
    <animate attributeName="opacity" values="1;0" keyTimes="0;1" dur="0.9s" begin="-0.117s" repeatCount="indefinite"></animate>
  </rect>
</g><g transform="rotate(313.2 50 50)">
  <rect x="48.5" y="4" rx="0.485" ry="0.04" width="3" height="2" fill="black">
    <animate attributeName="opacity" values="1;0" keyTimes="0;1" dur="0.9s" begin="-0.10800000000000001s" repeatCount="indefinite"></animate>
  </rect>
</g><g transform="rotate(316.8 50 50)">
  <rect x="48.5" y="4" rx="0.485" ry="0.04" width="3" height="2" fill="black">
    <animate attributeName="opacity" values="1;0" keyTimes="0;1" dur="0.9s" begin="-0.099s" repeatCount="indefinite"></animate>
  </rect>
</g><g transform="rotate(320.4 50 50)">
  <rect x="48.5" y="4" rx="0.485" ry="0.04" width="3" height="2" fill="black">
    <animate attributeName="opacity" values="1;0" keyTimes="0;1" dur="0.9s" begin="-0.09s" repeatCount="indefinite"></animate>
  </rect>
</g><g transform="rotate(324 50 50)">
  <rect x="48.5" y="4" rx="0.485" ry="0.04" width="3" height="2" fill="black">
    <animate attributeName="opacity" values="1;0" keyTimes="0;1" dur="0.9s" begin="-0.081s" repeatCount="indefinite"></animate>
  </rect>
</g><g transform="rotate(327.6 50 50)">
  <rect x="48.5" y="4" rx="0.485" ry="0.04" width="3" height="2" fill="black">
    <animate attributeName="opacity" values="1;0" keyTimes="0;1" dur="0.9s" begin="-0.07200000000000001s" repeatCount="indefinite"></animate>
  </rect>
</g><g transform="rotate(331.2 50 50)">
  <rect x="48.5" y="4" rx="0.485" ry="0.04" width="3" height="2" fill="black">
    <animate attributeName="opacity" values="1;0" keyTimes="0;1" dur="0.9s" begin="-0.063s" repeatCount="indefinite"></animate>
  </rect>
</g><g transform="rotate(334.8 50 50)">
  <rect x="48.5" y="4" rx="0.485" ry="0.04" width="3" height="2" fill="black">
    <animate attributeName="opacity" values="1;0" keyTimes="0;1" dur="0.9s" begin="-0.054000000000000006s" repeatCount="indefinite"></animate>
  </rect>
</g><g transform="rotate(338.4 50 50)">
  <rect x="48.5" y="4" rx="0.485" ry="0.04" width="3" height="2" fill="black">
    <animate attributeName="opacity" values="1;0" keyTimes="0;1" dur="0.9s" begin="-0.045s" repeatCount="indefinite"></animate>
  </rect>
</g><g transform="rotate(342 50 50)">
  <rect x="48.5" y="4" rx="0.485" ry="0.04" width="3" height="2" fill="black">
    <animate attributeName="opacity" values="1;0" keyTimes="0;1" dur="0.9s" begin="-0.036000000000000004s" repeatCount="indefinite"></animate>
  </rect>
</g><g transform="rotate(345.6 50 50)">
  <rect x="48.5" y="4" rx="0.485" ry="0.04" width="3" height="2" fill="black">
    <animate attributeName="opacity" values="1;0" keyTimes="0;1" dur="0.9s" begin="-0.027000000000000003s" repeatCount="indefinite"></animate>
  </rect>
</g><g transform="rotate(349.2 50 50)">
  <rect x="48.5" y="4" rx="0.485" ry="0.04" width="3" height="2" fill="black">
    <animate attributeName="opacity" values="1;0" keyTimes="0;1" dur="0.9s" begin="-0.018000000000000002s" repeatCount="indefinite"></animate>
  </rect>
</g><g transform="rotate(352.8 50 50)">
  <rect x="48.5" y="4" rx="0.485" ry="0.04" width="3" height="2" fill="black">
    <animate attributeName="opacity" values="1;0" keyTimes="0;1" dur="0.9s" begin="-0.009000000000000001s" repeatCount="indefinite"></animate>
  </rect>
</g><g transform="rotate(356.4 50 50)">
  <rect x="48.5" y="4" rx="0.485" ry="0.04" width="3" height="2" fill="black">
    <animate attributeName="opacity" values="1;0" keyTimes="0;1" dur="0.9s" begin="0s" repeatCount="indefinite"></animate>
  </rect>
</g></svg>