<?xml version="1.0" encoding="UTF-8" standalone="no"?>
<!-- Created with Inkscape (http://www.inkscape.org/) -->
<svg
   xmlns:dc="http://purl.org/dc/elements/1.1/"
   xmlns:cc="http://creativecommons.org/ns#"
   xmlns:rdf="http://www.w3.org/1999/02/22-rdf-syntax-ns#"
   xmlns:svg="http://www.w3.org/2000/svg"
   xmlns="http://www.w3.org/2000/svg"
   xmlns:sodipodi="http://sodipodi.sourceforge.net/DTD/sodipodi-0.dtd"
   xmlns:inkscape="http://www.inkscape.org/namespaces/inkscape"
   version="1.0"
   width="350"
   height="80"
   id="svg2662"
   sodipodi:version="0.32"
   inkscape:version="0.46"
   sodipodi:docname="Steinway_and_Sons_Logo.svg"
   inkscape:output_extension="org.inkscape.output.svg.inkscape">
  <metadata
     id="metadata22">
    <rdf:RDF>
      <cc:Work
         rdf:about="">
        <dc:format>image/svg+xml</dc:format>
        <dc:type
           rdf:resource="http://purl.org/dc/dcmitype/StillImage" />
      </cc:Work>
    </rdf:RDF>
  </metadata>
  <sodipodi:namedview
     inkscape:window-height="701"
     inkscape:window-width="1126"
     inkscape:pageshadow="2"
     inkscape:pageopacity="0.0"
     guidetolerance="10.0"
     gridtolerance="10.0"
     objecttolerance="10.0"
     borderopacity="1.0"
     bordercolor="#666666"
     pagecolor="#ffffff"
     id="base"
     showgrid="false"
     inkscape:zoom="1.9155833"
     inkscape:cx="170.64168"
     inkscape:cy="37.5"
     inkscape:window-x="0"
     inkscape:window-y="22"
     inkscape:current-layer="svg2662" />
  <defs
     id="defs2664">
    <inkscape:perspective
       sodipodi:type="inkscape:persp3d"
       inkscape:vp_x="0 : 37.5 : 1"
       inkscape:vp_y="0 : 1000 : 0"
       inkscape:vp_z="283.46457 : 37.5 : 1"
       inkscape:persp3d-origin="141.73228 : 25 : 1"
       id="perspective24" />
  </defs>
  <g
     id="g2428"
     transform="matrix(1.289489,0,0,1.289489,-3.9675329,-8.3558375)">
    <path
       style="fill:#231f20;fill-opacity:1;fill-rule:nonzero;stroke:none"
       id="path2506"
       d="M 151.30825,53.7525 C 151.30825,53.7525 151.502,53.89125 151.502,54.10625 C 151.502,54.3225 151.30825,54.5825 151.30825,54.5825 L 148.80825,57.81125 L 145.9195,54.63875 C 145.9195,54.63875 145.60575,54.355 145.60575,54.1175 C 145.60575,53.88 145.757,53.7525 145.757,53.7525 L 142.9495,53.7525 C 142.9495,53.7525 143.33825,53.83625 143.662,54.225 C 143.98575,54.61375 147.8095,58.9875 147.8095,58.9875 C 147.8095,58.9875 147.8095,63.8775 147.8095,64.1175 C 147.8095,64.57125 147.52825,64.895 147.52825,64.895 L 149.49325,64.895 C 149.49325,64.895 149.21325,64.615 149.21325,64.1175 C 149.21325,63.84 149.21325,58.55625 149.21325,58.55625 C 149.21325,58.55625 152.2795,54.60375 152.582,54.23625 C 152.8845,53.86875 153.27325,53.7525 153.27325,53.7525 L 151.30825,53.7525" />
    <path
       style="fill:#231f20;fill-opacity:1;fill-rule:nonzero;stroke:none"
       id="path2508"
       d="M 124.88075,60.48875 L 126.812,55.75875 L 128.767,60.48875 L 124.88075,60.48875 z M 123.6045,64.895 C 123.6045,64.895 123.41075,64.5925 123.41075,64.20375 C 123.41075,63.815 124.53325,61.26625 124.53325,61.26625 L 129.0695,61.26625 C 129.0695,61.26625 130.2795,64.01 130.2795,64.3775 C 130.2795,64.74375 130.107,64.895 130.107,64.895 L 132.56825,64.895 C 132.56825,64.895 132.02825,64.615 131.7045,63.8375 C 131.38075,63.06 127.19075,52.71375 127.19075,52.71375 C 127.19075,52.71375 122.80575,63.44875 122.612,63.96625 C 122.417,64.485 121.89825,64.895 121.89825,64.895 L 123.6045,64.895" />
    <path
       style="fill:#231f20;fill-opacity:1;fill-rule:nonzero;stroke:none"
       id="path2510"
       d="M 97.699499,53.79375 C 97.699499,53.79375 97.980749,53.945 98.196999,54.5925 C 98.413249,55.24125 101.652,65.2625 101.652,65.2625 L 105.00075,56.53625 L 108.65075,65.2625 C 108.65075,65.2625 111.912,55.28375 112.1495,54.61375 C 112.387,53.945 112.77575,53.79375 112.77575,53.79375 L 111.1345,53.79375 C 111.1345,53.79375 111.28575,54.09625 111.28575,54.26875 C 111.28575,54.44125 111.1345,55.04625 111.1345,55.04625 L 108.932,61.7425 L 105.4545,52.95125 L 102.192,61.52625 L 100.1195,55.305 C 100.1195,55.305 99.924499,54.7875 99.924499,54.44125 C 99.924499,54.09625 100.162,53.79375 100.162,53.79375 L 97.699499,53.79375" />
    <path
       style="fill:#231f20;fill-opacity:1;fill-rule:nonzero;stroke:none"
       id="path2512"
       d="M 86.114499,53.75 C 86.114499,53.75 86.394499,54.03125 86.394499,54.50625 C 86.394499,54.84125 86.394499,59.535 86.394499,62.2275 L 78.089499,53.1675 C 78.089499,53.1675 78.089499,63.66375 78.089499,64.1175 C 78.089499,64.57125 77.809499,64.895 77.809499,64.895 L 79.170749,64.895 C 79.170749,64.895 78.889499,64.615 78.889499,64.1175 C 78.889499,63.86375 78.890749,56.2725 78.890749,56.2725 L 86.856999,64.97375 L 87.108249,64.98125 C 87.108249,64.98125 87.108249,54.96 87.108249,54.50625 C 87.108249,54.0525 87.388249,53.75 87.388249,53.75 L 86.114499,53.75" />
    <path
       style="fill:#231f20;fill-opacity:1;fill-rule:nonzero;stroke:none"
       id="path2514"
       d="M 64.435749,53.75 L 66.595749,53.75 C 66.595749,53.75 66.315749,54.0525 66.315749,54.50625 C 66.315749,54.96 66.315749,63.62125 66.315749,64.1175 C 66.315749,64.615 66.595749,64.895 66.595749,64.895 L 64.435749,64.895 C 64.435749,64.895 64.716999,64.57125 64.716999,64.1175 C 64.716999,63.66375 64.716999,54.98125 64.716999,54.50625 C 64.716999,54.03125 64.435749,53.75 64.435749,53.75" />
    <path
       style="fill:#231f20;fill-opacity:1;fill-rule:nonzero;stroke:none"
       id="path2516"
       d="M 46.236999,53.7725 L 53.580749,53.7725 L 53.580749,54.93875 C 53.580749,54.93875 53.191999,54.44125 52.328249,54.44125 C 51.463249,54.44125 48.115749,54.44125 48.115749,54.44125 L 48.115749,58.5675 C 48.115749,58.5675 50.966999,58.5675 51.376999,58.5675 C 51.788249,58.5675 52.198249,58.35125 52.198249,58.35125 L 52.198249,59.5175 C 52.198249,59.5175 51.895749,59.345 51.399499,59.345 C 50.901999,59.345 48.115749,59.345 48.115749,59.345 L 48.115749,64.1175 C 48.115749,64.1175 51.981999,64.1175 52.694499,64.1175 C 53.408249,64.1175 53.818249,63.68625 53.818249,63.68625 L 53.818249,64.895 C 53.818249,64.895 46.755749,64.895 46.539499,64.895 C 46.323249,64.895 46.236999,64.8525 46.236999,64.6575 C 46.236999,64.46375 46.518249,64.4425 46.518249,64.09625 C 46.518249,63.75125 46.518249,54.6575 46.518249,54.33375 C 46.518249,54.01 46.236999,53.7725 46.236999,53.7725" />
    <path
       style="fill:#231f20;fill-opacity:1;fill-rule:nonzero;stroke:none"
       id="path2518"
       d="M 26.684499,53.75 L 37.203249,53.75 L 37.181999,54.83 C 37.181999,54.83 36.900749,54.50625 36.360749,54.50625 C 35.820749,54.50625 32.624499,54.50625 32.624499,54.50625 C 32.624499,54.50625 32.624499,63.62125 32.624499,64.1175 C 32.624499,64.615 32.948249,64.895 32.948249,64.895 L 30.701999,64.895 C 30.701999,64.895 31.025749,64.57125 31.025749,64.1175 C 31.025749,63.66375 31.025749,54.50625 31.025749,54.50625 C 31.025749,54.50625 28.045749,54.50625 27.375749,54.50625 C 26.706999,54.50625 26.663249,54.7875 26.663249,54.7875 L 26.684499,53.75" />
    <path
       style="fill:#231f20;fill-opacity:1;fill-rule:nonzero;stroke:none"
       id="path2520"
       d="M 14.384499,52.88625 C 15.788249,52.88625 16.025749,53.36125 16.933249,53.36125 C 17.214499,53.36125 17.429499,53.21 17.429499,53.21 L 17.429499,55.2625 C 17.429499,55.2625 15.658249,53.7075 14.211999,53.7075 C 12.764499,53.7075 12.094499,54.39875 12.094499,55.37 C 12.094499,56.55875 12.959499,57.09875 15.420749,57.94 C 17.883249,58.7825 18.271999,60.36 18.271999,61.4175 C 18.271999,64.2475 15.809499,65.06875 14.168249,65.06875 C 12.526999,65.06875 10.993249,64.22625 10.669499,64.22625 C 10.345749,64.22625 10.043249,64.485 10.043249,64.485 C 10.043249,64.485 10.064499,63.12375 10.043249,62.195 C 10.971999,63.14625 12.030749,64.1175 13.930749,64.14 C 15.831999,64.16125 16.565749,62.9725 16.565749,61.87125 C 16.565749,60.77 15.658249,60.1225 13.909499,59.47375 C 12.159499,58.82625 10.345749,57.9625 10.345749,55.95375 C 10.345749,53.945 12.591999,52.88625 14.384499,52.88625" />
    <path
       style="fill:#231f20;fill-opacity:1;fill-rule:nonzero;stroke:none"
       id="path2522"
       d="M 148.82325,23.33875 C 146.8795,20.40125 145.32325,17.785 145.32325,15.77875 C 145.32325,13.7725 145.947,12.1075 147.61325,12.1075 C 148.69325,12.1075 149.09575,12.83375 149.09575,13.10625 C 149.09575,13.37875 149.012,13.61875 148.6345,13.61875 C 148.04325,13.61875 147.78575,14.0975 147.78575,14.57 C 147.78575,15.07375 148.01325,15.68125 148.952,15.68125 C 149.78075,15.68125 150.3595,14.7475 150.3595,13.74875 C 150.3595,13.025 149.7595,11.41375 147.71325,11.41375 C 145.75325,11.41375 144.3295,12.65875 144.212,15.45 L 142.0845,15.45 L 142.0845,14.05125 L 141.3495,14.05125 L 141.3495,15.45 L 138.93075,15.45 L 138.93075,13.64875 C 139.83575,13.46375 140.517,12.66375 140.517,11.705 C 140.517,10.61 139.62825,9.72125 138.53325,9.72125 C 137.437,9.72125 136.54825,10.61 136.54825,11.705 C 136.54825,12.67 137.2395,13.4725 138.15325,13.65 L 138.15325,15.45 L 135.73325,15.45 L 135.73325,14.05125 L 134.9995,14.05125 L 134.9995,15.45 L 132.872,15.45 C 132.7545,12.65875 131.33075,11.41375 129.37075,11.41375 C 127.32325,11.41375 126.7245,13.025 126.7245,13.74875 C 126.7245,14.7475 127.302,15.68125 128.13075,15.68125 C 129.07075,15.68125 129.297,15.07375 129.297,14.57 C 129.297,14.0975 129.04075,13.61875 128.4495,13.61875 C 128.072,13.61875 127.98825,13.37875 127.98825,13.10625 C 127.98825,12.83375 128.3895,12.1075 129.47075,12.1075 C 131.13575,12.1075 131.7595,13.7725 131.7595,15.77875 C 131.7595,17.785 130.2045,20.40125 128.26075,23.33875 C 126.317,26.27625 123.552,29.9475 123.552,33.3175 C 123.552,36.6875 125.92825,39.5375 129.5995,39.5375 C 132.302,39.5375 133.5745,37.97125 134.0595,36.5575 L 137.13825,36.5575 L 137.13825,39.685 C 136.547,39.68875 135.99325,39.6875 135.99325,39.6675 C 134.827,41.26625 132.7095,42.13 129.98825,42.13 L 129.98825,42.7775 L 133.142,42.7775 L 133.142,43.72875 L 134.567,43.72875 L 134.567,42.7775 L 137.67825,42.7775 L 137.67825,43.72875 L 139.40575,43.72875 L 139.40575,42.7775 L 142.51575,42.7775 L 142.51575,43.72875 L 143.942,43.72875 L 143.942,42.7775 L 147.0945,42.7775 L 147.0945,42.13 C 144.37325,42.13 142.257,41.26625 141.09075,39.6675 C 141.09075,39.6875 140.537,39.68875 139.94575,39.685 L 139.94575,36.5575 L 143.0245,36.5575 C 143.5095,37.97125 144.782,39.5375 147.48325,39.5375 C 151.15575,39.5375 153.532,36.6875 153.532,33.3175 C 153.532,29.9475 150.767,26.27625 148.82325,23.33875 z M 141.3495,16.52375 L 141.3495,25.09375 C 141.042,25.32875 140.5845,25.685 140.29075,25.9525 C 139.912,26.29625 139.34325,26.705 138.93075,26.85875 L 138.93075,24.18125 C 139.12575,24.16875 139.3245,24.16 139.53575,24.16 C 139.312,24.095 139.1145,24.00625 138.93075,23.90625 L 138.93075,20.41375 C 139.252,20.43875 139.492,20.50375 139.492,20.66 C 139.492,20.87625 139.362,20.87625 139.362,21.1575 C 139.362,21.4375 139.57825,21.805 140.032,21.805 C 140.48575,21.805 140.72325,21.58875 140.72325,20.9625 C 140.72325,20.41 139.897,19.75625 138.93075,19.61125 L 138.93075,16.52375 L 141.3495,16.52375 z M 138.93075,27.6675 C 139.37075,27.52 139.852,27.19 140.162,26.94625 C 140.5245,26.66 140.9195,26.32375 141.3495,26.24875 L 141.3495,29.7775 C 140.77575,30.17 139.9895,30.47125 138.93075,30.5525 L 138.93075,27.6675 z M 138.15325,23.29375 C 137.657,22.74 137.44075,22.08625 137.44075,21.6975 C 137.44075,21.21375 137.77575,20.7325 138.15325,20.5175 L 138.15325,23.29375 z M 138.15325,26.82 C 137.95075,26.74375 137.77575,26.6425 137.67825,26.5575 C 137.5045,26.40625 137.44075,26.3625 137.267,26.3625 C 137.0945,26.3625 137.11575,26.535 137.11575,26.7725 C 137.11575,26.97625 137.46825,27.5425 138.15325,27.70125 L 138.15325,30.56625 C 137.16825,30.53375 136.352,30.26 135.73325,29.8375 L 135.73325,25.22875 C 136.312,24.7975 137.0995,24.43625 138.15325,24.26625 L 138.15325,26.82 z M 134.9995,29.16125 C 134.59075,28.64875 134.37325,28.0475 134.37325,27.4425 C 134.37325,27.06875 134.5545,26.4975 134.9995,25.935 L 134.9995,29.16125 z M 138.15325,31.3 L 138.15325,35.305 L 135.73325,35.305 L 135.73325,30.8675 C 136.397,31.12 137.20325,31.275 138.15325,31.3 z M 138.93075,31.28625 C 139.82575,31.21375 140.647,30.96 141.3495,30.60375 L 141.3495,35.305 L 138.93075,35.305 L 138.93075,31.28625 z M 142.0845,26.39375 C 142.40325,26.58625 142.667,26.96875 142.667,27.615 C 142.667,28.0225 142.49575,28.57875 142.0845,29.1 L 142.0845,26.39375 z M 138.15325,16.52375 L 138.15325,19.60875 C 136.78575,19.79125 136.27325,20.9175 136.27325,21.61125 C 136.27325,22.36625 136.512,23.1225 137.5045,23.81375 C 136.82325,23.9425 136.23825,24.14375 135.73325,24.3925 L 135.73325,16.52375 L 138.15325,16.52375 z M 129.47075,34.61375 C 130.16075,34.61375 130.637,34.29 130.637,33.49 C 130.637,32.615 129.772,32.7025 129.772,32.335 C 129.772,31.9675 130.272,31.74625 131.2195,31.74625 C 131.78075,31.74625 133.53075,32.3675 133.53075,35.21875 C 133.53075,35.24625 133.527,35.27625 133.52575,35.305 L 131.932,35.305 L 131.932,36.5575 L 133.187,36.5575 C 132.6245,37.6675 131.3895,38.63125 129.64325,38.63125 C 127.202,38.63125 125.06325,36.40625 125.06325,33.49 C 125.06325,30.57375 127.48325,27.0975 129.03825,24.59125 C 130.4745,22.2775 132.53325,19.36375 132.8395,16.52375 L 134.9995,16.52375 L 134.9995,24.83 C 133.8345,25.665 133.3145,26.82 133.3145,27.89625 C 133.3145,28.86 133.86325,29.85125 134.9995,30.51625 L 134.9995,35.305 L 134.30325,35.305 C 134.3045,35.26125 134.30825,35.21625 134.30825,35.175 C 134.30825,33.70625 133.42325,31.0275 130.89575,31.0275 C 128.90825,31.0275 128.217,32.56125 128.217,33.27375 C 128.217,33.9875 128.7795,34.61375 129.47075,34.61375 z M 147.44075,38.63125 C 145.69325,38.63125 144.4595,37.6675 143.897,36.5575 L 144.84825,36.5575 L 144.84825,35.305 L 143.55825,35.305 C 143.557,35.27625 143.55325,35.24625 143.55325,35.21875 C 143.55325,32.3675 145.302,31.74625 145.8645,31.74625 C 146.812,31.74625 147.31075,31.9675 147.31075,32.335 C 147.31075,32.7025 146.447,32.615 146.447,33.49 C 146.447,34.29 146.922,34.61375 147.61325,34.61375 C 148.3045,34.61375 148.86575,33.9875 148.86575,33.27375 C 148.86575,32.56125 148.1745,31.0275 146.18825,31.0275 C 143.66075,31.0275 142.77575,33.70625 142.77575,35.175 C 142.77575,35.21625 142.7795,35.26125 142.78075,35.305 L 142.0845,35.305 L 142.0845,30.165 C 143.112,29.45 143.747,28.53 143.747,27.7875 C 143.747,26.3625 142.51575,25.77875 142.51575,25.56375 C 142.51575,25.3475 142.602,25.3475 142.732,25.30375 C 142.862,25.26125 142.9045,25.175 142.9045,25.045 C 142.9045,24.915 142.797,24.85125 142.667,24.85125 C 142.59825,24.85125 142.327,24.85125 142.0845,24.85125 L 142.0845,16.52375 L 144.24325,16.52375 C 144.5495,19.36375 146.6095,22.2775 148.04575,24.59125 C 149.60075,27.0975 152.0195,30.57375 152.0195,33.49 C 152.0195,36.40625 149.882,38.63125 147.44075,38.63125" />
    <path
       style="fill:#231f20;fill-opacity:1;fill-rule:nonzero;stroke:none"
       id="path2524"
       d="M 205.39575,52.88625 C 206.7995,52.88625 207.037,53.36125 207.94325,53.36125 C 208.2245,53.36125 208.44075,53.21 208.44075,53.21 L 208.44075,55.2625 C 208.44075,55.2625 206.6695,53.7075 205.222,53.7075 C 203.77575,53.7075 203.10575,54.39875 203.10575,55.37 C 203.10575,56.55875 203.9695,57.09875 206.432,57.94 C 208.8945,58.7825 209.28325,60.36 209.28325,61.4175 C 209.28325,64.2475 206.82075,65.06875 205.1795,65.06875 C 203.537,65.06875 202.0045,64.22625 201.6795,64.22625 C 201.35575,64.22625 201.05325,64.485 201.05325,64.485 C 201.05325,64.485 201.07575,63.12375 201.05325,62.195 C 201.982,63.14625 203.04075,64.1175 204.942,64.14 C 206.842,64.16125 207.577,62.9725 207.577,61.87125 C 207.577,60.77 206.6695,60.1225 204.9195,59.47375 C 203.17075,58.82625 201.35575,57.9625 201.35575,55.95375 C 201.35575,53.945 203.602,52.88625 205.39575,52.88625" />
    <path
       style="fill:#231f20;fill-opacity:1;fill-rule:nonzero;stroke:none"
       id="path2526"
       d="M 263.647,52.88625 C 265.052,52.88625 265.2895,53.36125 266.19575,53.36125 C 266.477,53.36125 266.69325,53.21 266.69325,53.21 L 266.69325,55.2625 C 266.69325,55.2625 264.922,53.7075 263.4745,53.7075 C 262.027,53.7075 261.35825,54.39875 261.35825,55.37 C 261.35825,56.55875 262.222,57.09875 264.6845,57.94 C 267.147,58.7825 267.53575,60.36 267.53575,61.4175 C 267.53575,64.2475 265.07325,65.06875 263.432,65.06875 C 261.7895,65.06875 260.25575,64.22625 259.932,64.22625 C 259.60825,64.22625 259.30575,64.485 259.30575,64.485 C 259.30575,64.485 259.32825,63.12375 259.30575,62.195 C 260.2345,63.14625 261.29325,64.1175 263.19325,64.14 C 265.0945,64.16125 265.8295,62.9725 265.8295,61.87125 C 265.8295,60.77 264.922,60.1225 263.172,59.47375 C 261.42325,58.82625 259.60825,57.9625 259.60825,55.95375 C 259.60825,53.945 261.8545,52.88625 263.647,52.88625" />
    <path
       style="fill:#231f20;fill-opacity:1;fill-rule:nonzero;stroke:none"
       id="path2528"
       d="M 247.0745,53.75 C 247.0745,53.75 247.35575,54.03125 247.35575,54.50625 C 247.35575,54.84125 247.35575,59.535 247.35575,62.2275 L 239.05075,53.1675 C 239.05075,53.1675 239.05075,63.66375 239.05075,64.1175 C 239.05075,64.57125 238.7695,64.895 238.7695,64.895 L 240.13075,64.895 C 240.13075,64.895 239.8495,64.615 239.8495,64.1175 C 239.8495,63.86375 239.85075,56.2725 239.85075,56.2725 L 247.817,64.97375 L 248.06825,64.98125 C 248.06825,64.98125 248.06825,54.96 248.06825,54.50625 C 248.06825,54.0525 248.3495,53.75 248.3495,53.75 L 247.0745,53.75" />
    <path
       style="fill:#231f20;fill-opacity:1;fill-rule:nonzero;stroke:none"
       id="path2530"
       d="M 227.95075,59.13 C 227.95075,61.415 226.56575,64.45125 224.062,64.45125 C 221.242,64.45125 219.68825,61.7275 219.68825,59.0075 C 219.68825,56.2875 221.41325,53.78375 223.9645,53.78375 C 227.2445,53.78375 227.95075,57.3075 227.95075,59.13 z M 224.062,52.88625 C 220.297,52.88625 217.79325,55.9975 217.79325,58.93625 C 217.79325,62.265 220.7845,65.27875 223.9895,65.27875 C 227.51325,65.27875 230.1595,62.19125 230.1595,59.155 C 230.1595,56.11875 227.53575,52.88625 224.062,52.88625" />
    <path
       style="fill:#231f20;fill-opacity:1;fill-rule:nonzero;stroke:none"
       id="path2532"
       d="M 176.14325,53.015 C 174.8345,53.015 172.74575,53.77375 172.74575,55.43875 C 172.74575,56.555 173.56825,57.21125 173.9695,57.42 C 173.232,57.79875 170.912,58.76625 170.912,61.3 C 170.912,62.56625 171.9645,64.94875 175.297,64.94875 C 178.63075,64.94875 179.74575,62.7275 179.74575,61.36125 C 179.74575,60.79375 179.60075,60.625 179.60075,60.28875 C 179.60075,59.95125 179.6645,59.76 179.97825,59.53 C 180.29325,59.3 180.10575,58.855 179.7895,59.0875 C 179.47325,59.32 177.8695,60.52 177.57575,60.71 C 177.282,60.89875 177.302,61.11 177.38575,61.2375 C 177.47075,61.36625 177.617,61.4275 177.70075,61.36375 C 177.7845,61.3 177.82825,61.25875 177.997,61.25875 C 178.31325,61.25875 178.7345,61.7025 178.7345,62.145 C 178.7345,63.40875 177.257,64.21125 175.887,64.21125 C 174.51825,64.21125 172.72575,63.095 172.72575,60.90125 C 172.72575,58.7075 174.682,57.865 176.2045,57.69625 C 176.54825,57.6575 176.582,57.315 175.92825,57.1475 C 175.1545,56.94625 174.24325,56.40875 174.24325,55.27 C 174.24325,54.13125 175.1495,53.71125 175.867,53.71125 C 176.5845,53.71125 177.512,54.0675 177.787,54.27875 C 178.06325,54.49125 178.43825,54.325 178.43825,53.94375 C 178.43825,53.56375 177.45075,53.015 176.14325,53.015" />
  </g>
</svg>
